<svg xmlns="http://www.w3.org/2000/svg" fill="none" viewBox="0 0 194 38"><path fill="#75A541" d="M21.298 24.56c-.26 1.48-.495 2.984-.703 4.512-1.408.25-2.698.427-3.871.528-1.174.101-2.18.152-3.02.152a17.535 17.535 0 0 1-5.305-.8 13.073 13.073 0 0 1-4.555-2.508 9.886 9.886 0 0 1-2.937-4.16 16.09 16.09 0 0 1 .188-11.16c.69-1.73 1.76-3.272 3.128-4.508a13.165 13.165 0 0 1 4.84-2.736 18.928 18.928 0 0 1 5.835-.9c2.202.02 4.398.255 6.557.7.035 1.124.074 1.92.11 2.4l.128 2.024a32.692 32.692 0 0 0-3.48-.776 18.294 18.294 0 0 0-2.647-.208 11.9 11.9 0 0 0-3.808.616 8.542 8.542 0 0 0-3.222 1.96 9.081 9.081 0 0 0-2.147 3.252 10.716 10.716 0 0 0-.75 3.968c-.024 1.52.293 3.025.926 4.4a7.265 7.265 0 0 0 2.972 3.164 9.749 9.749 0 0 0 5.063 1.2 24.364 24.364 0 0 0 6.698-1.12ZM26.319 14.256c.172-.912.277-1.548.324-1.916.047-.368.118-.92.231-1.664a42.056 42.056 0 0 1 4.442-.852 29.44 29.44 0 0 1 3.722-.248 13.59 13.59 0 0 1 3.742.484 5.507 5.507 0 0 1 2.667 1.544c.641.708.966 1.724.966 3.048 0 .72-.1 2.555-.297 5.504-.198 2.95-.314 5.996-.348 9.14-.939-.024-1.807-.036-2.597-.036s-1.638 0-2.65.036c.163-1.528.294-3.296.39-5.304l.243-4.716c-.347.241-.706.463-1.076.664-.269.136-.547.252-.832.348-.308.107-.852.27-1.63.492-.78.221-1.405.415-1.874.58a8.414 8.414 0 0 0-1.27.56c-.35.186-.67.422-.955.7a2.58 2.58 0 0 0-.563.8 2.407 2.407 0 0 0-.176.92 2.15 2.15 0 0 0 .454 1.376c.292.377.689.656 1.138.8a5.114 5.114 0 0 0 1.61.228 8.665 8.665 0 0 0 1.252-.096 10.545 10.545 0 0 0 1.767-.472 33.35 33.35 0 0 0-.907 3.2c-.876.152-1.564.244-2.092.284a18.96 18.96 0 0 1-1.447.056 9.802 9.802 0 0 1-3.831-.644 4.29 4.29 0 0 1-2.214-2.044 6.161 6.161 0 0 1-.715-2.824 4.932 4.932 0 0 1 1.095-3.068c.406-.488.874-.92 1.392-1.28.765-.51 1.593-.914 2.463-1.2a36.828 36.828 0 0 1 4.262-1.164c.47-.1.958-.224 1.462-.368a8.591 8.591 0 0 0 1.217-.428c.29-.13.555-.313.782-.54.205-.196.373-.431.492-.692.103-.231.157-.482.157-.736a1.783 1.783 0 0 0-.474-1.252 2.48 2.48 0 0 0-1.223-.708 6.315 6.315 0 0 0-1.658-.2c-2.562.08-5.086.653-7.441 1.688ZM46.428 29.296c.173-2.133.355-5.341.548-9.624.193-4.283.288-7.496.285-9.64 1.052.024 1.9.036 2.558.036.75 0 1.564 0 2.443-.036l-.14 3.048c.33-.507.691-.99 1.083-1.448a5.345 5.345 0 0 1 1.267-1.032 6.735 6.735 0 0 1 1.822-.748 8.453 8.453 0 0 1 3.77-.116c.486.098.96.25 1.415.456.391.175.76.4 1.094.672.299.242.562.526.782.844.268.433.492.893.67 1.372.273-.44.523-.8.75-1.108a6.098 6.098 0 0 1 2.193-1.712 7.254 7.254 0 0 1 1.584-.504 9.1 9.1 0 0 1 1.826-.18 8.498 8.498 0 0 1 3.034.54c.899.322 1.68.917 2.24 1.704.566.85.852 1.861.818 2.888 0 .608-.043 1.499-.13 2.672-.085 1.173-.19 3.09-.312 5.752-.122 2.667-.189 4.721-.2 6.164a91.464 91.464 0 0 0-2.392-.036c-.816 0-1.774.012-2.874.036.11-1.63.215-3.333.317-5.112l.222-4.34c.058-1.099.088-2.032.09-2.8a4.046 4.046 0 0 0-.414-2.048 2.406 2.406 0 0 0-1.056-.992 3.405 3.405 0 0 0-1.435-.296 3.452 3.452 0 0 0-1.513.324c-.49.25-.92.607-1.26 1.048a5.31 5.31 0 0 0-.898 1.684 12.6 12.6 0 0 0-.462 2.696 94.095 94.095 0 0 0-.235 4.556l-.129 5.264c-1.024-.024-1.88-.036-2.56-.036-.681 0-1.588 0-2.738.036.086-.97.217-2.96.391-5.968.175-3.008.254-5.035.239-6.08a6.61 6.61 0 0 0-.13-1.412 2.78 2.78 0 0 0-.527-1.096 2.483 2.483 0 0 0-.935-.768 2.938 2.938 0 0 0-1.24-.248 3.323 3.323 0 0 0-2.275.872 5.004 5.004 0 0 0-1.435 2.332c-.305.992-.53 2.888-.676 5.688-.146 2.8-.214 5.032-.204 6.696a131.007 131.007 0 0 0-2.565-.036c-.644 0-1.545.012-2.706.036ZM79.82 38c.309-3.525.587-8.09.838-13.696.25-5.605.374-10.159.371-13.66 2.346-.428 4.16-.712 5.443-.852a35.302 35.302 0 0 1 3.832-.208c1.548-.017 3.09.187 4.583.608a6.888 6.888 0 0 1 3.335 2.024 9.155 9.155 0 0 1 1.849 3.296 12.73 12.73 0 0 1 .603 3.924 13.747 13.747 0 0 1-.575 3.976 10.444 10.444 0 0 1-1.756 3.44 7.148 7.148 0 0 1-2.737 2.216 8.376 8.376 0 0 1-3.417.692c-.726 0-1.45-.089-2.155-.264a7.868 7.868 0 0 1-1.869-.704 7.411 7.411 0 0 1-1.322-.88 13.997 13.997 0 0 1-1.313-1.336l-.297 8.224v1.288c0 .164-.02.8-.02 1.892h-2.631L79.82 38Zm6.316-23.868c-.086.68-.149 1.268-.188 1.76l-.113 2.104a44.678 44.678 0 0 0-.075 2c-.002.744.077 1.486.235 2.212.157.713.474 1.379.927 1.944a4.672 4.672 0 0 0 1.65 1.352 4.5 4.5 0 0 0 1.978.464c.92.006 1.82-.282 2.573-.824a5.243 5.243 0 0 0 1.79-2.4 9.13 9.13 0 0 0 .63-3.384 7.342 7.342 0 0 0-.696-3.36 4.486 4.486 0 0 0-1.865-2 5.535 5.535 0 0 0-2.65-.624 13.2 13.2 0 0 0-4.196.748v.008ZM113.987 9.576a12.795 12.795 0 0 1 4.087.652 8.926 8.926 0 0 1 3.315 1.932 8.101 8.101 0 0 1 2.045 3.128c.459 1.244.691 2.563.685 3.892a12.145 12.145 0 0 1-.724 4.168 9.902 9.902 0 0 1-2.092 3.476 8.475 8.475 0 0 1-3.417 2.2 12.936 12.936 0 0 1-4.36.728 12.664 12.664 0 0 1-4.082-.652 8.813 8.813 0 0 1-3.308-1.964 8.48 8.48 0 0 1-2.084-3.18 11.011 11.011 0 0 1-.712-3.924 12.176 12.176 0 0 1 .649-3.976 9.263 9.263 0 0 1 2.026-3.372 9.132 9.132 0 0 1 3.519-2.292 12.4 12.4 0 0 1 4.453-.816Zm0 3.904a5.237 5.237 0 0 0-2.87.8 4.779 4.779 0 0 0-1.88 2.4 9.518 9.518 0 0 0-.618 3.468 7.92 7.92 0 0 0 .508 2.936 4.477 4.477 0 0 0 1.658 2.084 4.704 4.704 0 0 0 2.737.8 5.002 5.002 0 0 0 2.851-.824 4.995 4.995 0 0 0 1.845-2.424 9.687 9.687 0 0 0 .618-3.536 8.224 8.224 0 0 0-.461-2.864 4.24 4.24 0 0 0-1.615-2.064 4.76 4.76 0 0 0-2.773-.776Z"/><path fill="#999" d="M140.889 29.3c.193-1.896.323-3.481.391-4.756.13-2.021.241-4.352.332-6.992.092-2.64.157-5.147.196-7.52 1.204.024 2.106.036 2.706.036.551 0 1.45 0 2.69-.036a219.39 219.39 0 0 0-.391 6.288 306.218 306.218 0 0 0-.235 6.88c-.047 2.576-.07 4.616-.07 6.12a94.166 94.166 0 0 0-2.706-.04c-.68.003-1.651.01-2.913.02Zm1.017-22.568c.046-1.3.074-2.296.074-2.992v-.604c1.123.024 2.036.036 2.737.036.962 0 1.857-.012 2.686-.036-.039.316-.062.676-.074 1.08l-.094 2.516a101.96 101.96 0 0 0-2.592-.036c-.79 0-1.703.012-2.737.036ZM150.871 29.3c.282-2.867.519-6.088.712-9.664.193-3.576.3-6.776.321-9.6a96.068 96.068 0 0 0 5.294 0l-.203 3.22c.311-.462.647-.906 1.008-1.328a6.314 6.314 0 0 1 1.111-.964c.449-.314.935-.57 1.447-.76a10.008 10.008 0 0 1 1.72-.452 11.087 11.087 0 0 1 1.99-.172 11.404 11.404 0 0 1 3.16.428 5.491 5.491 0 0 1 2.436 1.352 4.57 4.57 0 0 1 1.224 2.028c.199.76.298 1.545.293 2.332 0 .34 0 .884-.055 1.628l-.391 8.28c-.047 1.15-.077 2.375-.09 3.676a75.318 75.318 0 0 0-2.502-.04c-.944 0-1.89.013-2.839.04.099-1.099.229-3.016.391-5.752.162-2.736.236-4.545.223-5.428a5.292 5.292 0 0 0-.462-2.4 3.046 3.046 0 0 0-1.435-1.384 4.733 4.733 0 0 0-2.099-.476 5.014 5.014 0 0 0-2.073.436 4.7 4.7 0 0 0-1.665 1.272 5.978 5.978 0 0 0-1.146 2.1 20.132 20.132 0 0 0-.63 4.376c-.125 1.808-.225 4.228-.301 7.26-.951-.03-1.81-.043-2.576-.04-.767.003-1.721.013-2.863.032ZM175.282 29.3l.368-4.928.426-9.452.199-8.092c.026-1.464.04-2.595.04-3.392 1.294.028 2.209.04 2.737.04.636 0 1.479-.013 2.529-.04l-.391 6.16-.441 9.812-.184 7.332-.02 2.56a87.974 87.974 0 0 0-2.588-.04c-.699 0-1.59.013-2.675.04Zm5.889-10.8 3.773-4.692c.326-.405.717-.904 1.173-1.496.446-.592 1.013-1.356 1.693-2.288 1.283.024 2.22.036 2.812.036.813 0 1.843-.012 3.089-.036l-6.128 7.176-1.094 1.364c.902 1.464 3.405 5.048 7.511 10.752-1.111-.028-2.065-.04-2.854-.04-.79 0-1.776 0-2.949.04a243.119 243.119 0 0 0-1.751-2.892 35.969 35.969 0 0 0-1.256-1.908l-3.151-4.608c-.082-.14-.375-.604-.868-1.4V18.5ZM130.457 1.108 135.004 0l-.231 24c-.02.808.213 1.602.665 2.264a3.66 3.66 0 0 0 1.447 1.228 4.752 4.752 0 0 1-1.47 1.332c-.352.2-1.85 1.052-3.308.42-1.263-.548-2.076-2.028-2.026-3.7"/></svg>